<svg width="78" height="74" viewBox="0 0 78 74" fill="none" xmlns="http://www.w3.org/2000/svg">
<path d="M18.816 41.28H17.664C16.192 41.28 14.72 41.12 13.248 40.8C11.776 40.48 10.4 39.904 9.12 39.072C7.904 38.176 6.912 36.992 6.144 35.52C5.376 33.984 4.992 32.064 4.992 29.76V13.824C4.992 11.52 5.376 9.632 6.144 8.16C6.912 6.624 7.904 5.44 9.12 4.608C10.4 3.712 11.776 3.104 13.248 2.784C14.72 2.464 16.192 2.304 17.664 2.304H18.816V41.28ZM4.32 62.784C4.32 60.8 4.704 59.2 5.472 57.984C6.24 56.704 7.168 55.712 8.256 55.008C9.344 54.304 10.496 53.856 11.712 53.664C12.928 53.408 13.984 53.28 14.88 53.28C15.648 53.28 16.288 53.344 16.8 53.472V58.272C16.8 60.64 17.728 61.824 19.584 61.824C20.16 61.824 20.64 61.728 21.024 61.536C21.408 61.344 21.824 61.056 22.272 60.672C22.464 61.184 22.56 61.824 22.56 62.592C22.624 63.36 22.656 63.968 22.656 64.416C22.656 65.184 22.528 66.016 22.272 66.912C22.016 67.808 21.568 68.64 20.928 69.408C20.352 70.112 19.52 70.72 18.432 71.232C17.344 71.744 15.968 72 14.304 72C12.576 72 11.072 71.712 9.792 71.136C8.576 70.56 7.552 69.856 6.72 69.024C5.952 68.128 5.344 67.136 4.896 66.048C4.512 64.96 4.32 63.872 4.32 62.784ZM24.192 33.12H25.344C26.752 33.12 28.192 33.28 29.664 33.6C31.2 33.92 32.576 34.528 33.792 35.424C35.072 36.256 36.096 37.44 36.864 38.976C37.632 40.448 38.016 42.336 38.016 44.64V60.576C38.016 62.88 37.632 64.8 36.864 66.336C36.096 67.808 35.072 68.992 33.792 69.888C32.576 70.72 31.2 71.296 29.664 71.616C28.192 71.936 26.752 72.096 25.344 72.096H24.192V33.12ZM38.496 11.52C38.496 13.568 38.112 15.2 37.344 16.416C36.576 17.632 35.648 18.592 34.56 19.296C33.472 20 32.32 20.48 31.104 20.736C29.888 20.928 28.832 21.024 27.936 21.024C27.168 21.024 26.528 20.96 26.016 20.832V16.032C26.016 13.664 25.088 12.48 23.232 12.48C22.656 12.48 22.176 12.576 21.792 12.768C21.408 12.96 20.992 13.248 20.544 13.632C20.352 13.12 20.224 12.48 20.16 11.712C20.16 10.944 20.16 10.336 20.16 9.888C20.16 9.12 20.288 8.288 20.544 7.392C20.8 6.496 21.216 5.696 21.792 4.992C22.432 4.224 23.296 3.584 24.384 3.07199C25.472 2.56 26.848 2.304 28.512 2.304C30.24 2.304 31.712 2.592 32.928 3.168C34.208 3.744 35.232 4.48 36 5.376C36.832 6.208 37.44 7.2 37.824 8.352C38.272 9.44 38.496 10.496 38.496 11.52Z" fill="#EFDCC3"/>
<path d="M59.184 41.28H60.336C61.808 41.28 63.28 41.12 64.752 40.8C66.224 40.48 67.6 39.904 68.88 39.072C70.096 38.176 71.088 36.992 71.856 35.52C72.624 33.984 73.008 32.064 73.008 29.76V13.824C73.008 11.52 72.624 9.632 71.856 8.16C71.088 6.624 70.096 5.44 68.88 4.608C67.6 3.712 66.224 3.104 64.752 2.784C63.28 2.464 61.808 2.304 60.336 2.304H59.184V41.28ZM73.68 62.784C73.68 60.8 73.296 59.2 72.528 57.984C71.76 56.704 70.832 55.712 69.744 55.008C68.656 54.304 67.504 53.856 66.288 53.664C65.072 53.408 64.016 53.28 63.12 53.28C62.352 53.28 61.712 53.344 61.2 53.472V58.272C61.2 60.64 60.272 61.824 58.416 61.824C57.84 61.824 57.36 61.728 56.976 61.536C56.592 61.344 56.176 61.056 55.728 60.672C55.536 61.184 55.44 61.824 55.44 62.592C55.376 63.36 55.344 63.968 55.344 64.416C55.344 65.184 55.472 66.016 55.728 66.912C55.984 67.808 56.432 68.64 57.072 69.408C57.648 70.112 58.48 70.72 59.568 71.232C60.656 71.744 62.032 72 63.696 72C65.424 72 66.928 71.712 68.208 71.136C69.424 70.56 70.448 69.856 71.28 69.024C72.048 68.128 72.656 67.136 73.104 66.048C73.488 64.96 73.68 63.872 73.68 62.784ZM53.808 33.12H52.656C51.248 33.12 49.808 33.28 48.336 33.6C46.8 33.92 45.424 34.528 44.208 35.424C42.928 36.256 41.904 37.44 41.136 38.976C40.368 40.448 39.984 42.336 39.984 44.64V60.576C39.984 62.88 40.368 64.8 41.136 66.336C41.904 67.808 42.928 68.992 44.208 69.888C45.424 70.72 46.8 71.296 48.336 71.616C49.808 71.936 51.248 72.096 52.656 72.096H53.808V33.12ZM39.504 11.52C39.504 13.568 39.888 15.2 40.656 16.416C41.424 17.632 42.352 18.592 43.44 19.296C44.528 20 45.68 20.48 46.896 20.736C48.112 20.928 49.168 21.024 50.064 21.024C50.832 21.024 51.472 20.96 51.984 20.832V16.032C51.984 13.664 52.912 12.48 54.768 12.48C55.344 12.48 55.824 12.576 56.208 12.768C56.592 12.96 57.008 13.248 57.456 13.632C57.648 13.12 57.776 12.48 57.84 11.712C57.84 10.944 57.84 10.336 57.84 9.888C57.84 9.12 57.712 8.288 57.456 7.392C57.2 6.496 56.784 5.696 56.208 4.992C55.568 4.224 54.704 3.584 53.616 3.07199C52.528 2.56 51.152 2.304 49.488 2.304C47.76 2.304 46.288 2.592 45.072 3.168C43.792 3.744 42.768 4.48 42 5.376C41.168 6.208 40.56 7.2 40.176 8.352C39.728 9.44 39.504 10.496 39.504 11.52Z" fill="#EFDCC3"/>
</svg>
